<?xml version="1.0" encoding="utf-8"?>
<!-- Generator: Adobe Illustrator 27.0.0, SVG Export Plug-In . SVG Version: 6.00 Build 0)  -->
<svg version="1.1" id="Layer_1" xmlns="http://www.w3.org/2000/svg" xmlns:xlink="http://www.w3.org/1999/xlink" x="0px" y="0px"
	 viewBox="0 0 195 195" style="enable-background:new 0 0 195 195;" xml:space="preserve">
<style type="text/css">
	.st0{fill:#E9CF49;}
	.st1{fill:none;}
	.st2{font-family:'ArialMT';}
	.st3{font-size:12px;}
</style>
<circle class="st0" cx="97.5" cy="98.3" r="97.5"/>
<g>
	<path d="M104.9,11.1c0-0.6,0.5-1,1.1-0.9l0.2,0c0.3,0.1,0.6,0.4,0.6,0.8l0.8,12.9l0.1,0l7.4-10.6c0.2-0.3,0.6-0.4,0.9-0.3l0.2,0
		c0.6,0.2,0.8,0.8,0.4,1.3l-8.7,12l-1.8-0.5L104.9,11.1z"/>
	<path d="M114.7,27.8l4.9-12.5c0.2-0.4,0.7-0.6,1.1-0.5l0.2,0.1c0.4,0.2,0.6,0.7,0.5,1.1l-4.9,12.5c-0.2,0.4-0.7,0.6-1.1,0.5
		l-0.2-0.1C114.8,28.7,114.5,28.2,114.7,27.8z"/>
	<path d="M126.2,34l-7.6-3.8l6.7-13.4l7.6,3.8c0.4,0.2,0.6,0.7,0.4,1.1l0,0c-0.2,0.4-0.7,0.6-1.1,0.4l-5.9-3l-2.2,4.3l5.6,2.8
		c0.4,0.2,0.6,0.7,0.4,1.1l0,0c-0.2,0.4-0.7,0.6-1.1,0.4l-5.6-2.8l-2.3,4.6l5.9,3c0.4,0.2,0.6,0.7,0.4,1.1l0,0
		C127.1,34,126.6,34.2,126.2,34z"/>
	<path d="M132.1,37.6l-0.4-0.3c-0.3-0.2-0.4-0.6-0.3-1l5-12.9c0.2-0.5,0.8-0.7,1.3-0.4l0.2,0.1c0.3,0.2,0.4,0.6,0.3,1l-4.6,11.1
		l0.1,0l10-7.9l1.5,1.1l-4.6,11.9l0.1,0l9.2-7.7c0.3-0.2,0.7-0.3,1,0l0.2,0.1c0.4,0.3,0.5,1,0,1.3l-10.9,8.6c-0.3,0.2-0.7,0.2-1,0
		l-0.4-0.3c-0.3-0.2-0.4-0.6-0.3-1l4.1-11.1l-0.1-0.1l-9.4,7.2C132.8,37.8,132.4,37.8,132.1,37.6z"/>
	<path d="M153.9,57l4.6-3.9l-5.3-6.3l-4.6,3.9c-0.4,0.3-0.9,0.2-1.2-0.1l-0.1-0.2c-0.3-0.4-0.2-0.9,0.1-1.2l10.3-8.6
		c0.4-0.3,0.9-0.2,1.2,0.1l0.1,0.2c0.3,0.4,0.2,0.9-0.1,1.2l-4.3,3.6l5.3,6.3l4.3-3.6c0.4-0.3,0.9-0.2,1.2,0.1l0.1,0.2
		c0.3,0.4,0.2,0.9-0.1,1.2l-10.3,8.6c-0.4,0.3-0.9,0.2-1.2-0.1l-0.1-0.2C153.5,57.8,153.5,57.3,153.9,57z"/>
	<path d="M169,68.5c-4.1,2.4-8.1,1.6-10.2-2.1c-2.2-3.7-0.9-7.5,3.2-9.9c4.1-2.4,8.1-1.6,10.2,2.1C174.4,62.3,173.2,66.1,169,68.5z
		 M163,58.2c-3.2,1.9-4.2,4.7-2.7,7.4c1.6,2.7,4.5,3.1,7.7,1.3c3.2-1.9,4.2-4.7,2.7-7.4C169.2,56.8,166.2,56.3,163,58.2z"/>
	<path d="M168,86.9c-0.2-0.4,0.1-0.9,0.5-1.1l10.1-3.6l0-0.1l-11.9-0.6c-0.3,0-0.6-0.2-0.7-0.5l-0.2-0.4c-0.1-0.3,0-0.7,0.2-0.9
		l8.8-8l0-0.1l-10.1,3.6c-0.4,0.2-0.9-0.1-1.1-0.5l0-0.1c-0.2-0.4,0.1-0.9,0.5-1.1l13.4-4.8l0.7,2.1l-10.1,9.1l0,0.1l13.6,0.6
		l0.7,2.1l-13.4,4.8C168.7,87.6,168.2,87.4,168,86.9L168,86.9z"/>
	<path d="M170.3,98.5l-1.5-8.4l14.8-2.6l1.5,8.4c0.1,0.5-0.2,0.9-0.7,1l0,0c-0.5,0.1-0.9-0.2-1-0.7l-1.1-6.5l-4.8,0.8l1.1,6.1
		c0.1,0.5-0.2,0.9-0.7,1l0,0c-0.5,0.1-0.9-0.2-1-0.7l-1.1-6.1l-5.1,0.9l1.1,6.5c0.1,0.5-0.2,0.9-0.7,1l0,0
		C170.8,99.2,170.3,98.9,170.3,98.5z"/>
</g>
<path id="SVGID_x5F_1_x5F_" class="st1" d="M27.8,98.3c0-38.5,31.2-69.7,69.7-69.7s69.7,31.2,69.7,69.7S136,168,97.5,168
	S27.8,136.8,27.8,98.3z"/>
<text class="st2 st3"> </text>
</svg>
